P1
# A depiction of the letter A.
6 5
001100
010010
011110
010010
010010
