<?xml version="1.0" encoding="utf-8" ?>
<svg xmlns="http://www.w3.org/2000/svg" 
xmlns:ev="http://www.w3.org/2001/xml-events" 
xmlns:xlink="http://www.w3.org/1999/xlink" width="90" height="75" 
baseProfile="full" version="1.1" viewBox="0,0,30,25">
    <defs>
        <style type="text/css">
            <![CDATA[

	rect {
		fill: white;
	}
	path, ellipse {
		stroke-width: 0.5px;
		stroke: black;
		stroke-linecap: round;
		stroke-linejoin: bevel;
	}

	#b0 rect {
		fill: black;
	}	
	#b0 ellipse {
		stroke: white;
		fill: none;
	}	
	#b0 path {
		stroke-width: 0.2px;
		stroke: white;
	}
	]]>
        </style>
        <g id="b1">
            <rect width="5" height="5" x="0" y="0"/>
            <path d="M2.5,1 l-0.5,0.5 M2.5,1 v3"/>
        </g>
        <g id="b0">
            <rect width="5" height="5" x="0" y="0"/>
            <ellipse cx="2.5" cy="2.5" rx="0.9" ry="1.3"/>
            <path d="M3.75,1.25 l-2.5,2.5"/>
        </g>
    </defs>
    <use x="0" y="0" xlink:href="#b0"/>
    <use x="5" y="0" xlink:href="#b0"/>
    <use x="10" y="0" xlink:href="#b1"/>
    <use x="15" y="0" xlink:href="#b1"/>
    <use x="20" y="0" xlink:href="#b0"/>
    <use x="25" y="0" xlink:href="#b0"/>
    <use x="0" y="5" xlink:href="#b0"/>
    <use x="5" y="5" xlink:href="#b1"/>
    <use x="10" y="5" xlink:href="#b0"/>
    <use x="15" y="5" xlink:href="#b0"/>
    <use x="20" y="5" xlink:href="#b1"/>
    <use x="25" y="5" xlink:href="#b0"/>
    <use x="0" y="10" xlink:href="#b0"/>
    <use x="5" y="10" xlink:href="#b1"/>
    <use x="10" y="10" xlink:href="#b1"/>
    <use x="15" y="10" xlink:href="#b1"/>
    <use x="20" y="10" xlink:href="#b1"/>
    <use x="25" y="10" xlink:href="#b0"/>
    <use x="0" y="15" xlink:href="#b0"/>
    <use x="5" y="15" xlink:href="#b1"/>
    <use x="10" y="15" xlink:href="#b0"/>
    <use x="15" y="15" xlink:href="#b0"/>
    <use x="20" y="15" xlink:href="#b1"/>
    <use x="25" y="15" xlink:href="#b0"/>
    <use x="0" y="20" xlink:href="#b0"/>
    <use x="5" y="20" xlink:href="#b1"/>
    <use x="10" y="20" xlink:href="#b0"/>
    <use x="15" y="20" xlink:href="#b0"/>
    <use x="20" y="20" xlink:href="#b1"/>
    <use x="25" y="20" xlink:href="#b0"/>
</svg>
