P1
# Hand-coded by Amy Dee Dempster
# Intended to be mirrored left-right by pbm2svg.
10 18
00000 00000 
00000 00000 
00001 00000 
00001 10000 
00001 11000 
00001 11111 
00001 11111 
00001 11111 
00011 11011
00011 11011
11111 11111
00011 11111
00011 11110
00101 11111
01000 01111
10000 00011
00000 00011
00000 00011
