<?xml version="1.0" encoding="utf-8" ?>
<svg xmlns="http://www.w3.org/2000/svg" xmlns:ev="http://www.w3.org/2001/xml-events" xmlns:xlink="http://www.w3.org/1999/xlink" 
width="300" height="270"
baseProfile="full" version="1.1" viewBox="0,0,100,90">
    <defs>
        <style type="text/css">
            <![CDATA[

	rect {
		fill: white;
	}
	path, ellipse {
		stroke-width: 0.5px;
		stroke: black;
		stroke-linecap: round;
		stroke-linejoin: bevel;
	}

	#b0 rect {
		fill: black;
	}	
	#b0 ellipse {
		stroke: white;
		fill: none;
	}	
	#b0 path {
		stroke-width: 0.2px;
		stroke: white;
	}
	]]>
        </style>
        <g id="b1">
            <rect width="5" height="5" x="0" y="0"/>
            <path d="M2.5,1 l-0.5,0.5 M2.5,1 v3"/>
        </g>
        <g id="b0">
            <rect width="5" height="5" x="0" y="0"/>
            <ellipse cx="2.5" cy="2.5" rx="0.9" ry="1.3"/>
            <path d="M3.75,1.25 l-2.5,2.5"/>
        </g>
    </defs>
    <use x="0" y="0" xlink:href="#b1"/>
    <use x="5" y="0" xlink:href="#b1"/>
    <use x="10" y="0" xlink:href="#b1"/>
    <use x="15" y="0" xlink:href="#b1"/>
    <use x="20" y="0" xlink:href="#b1"/>
    <use x="25" y="0" xlink:href="#b1"/>
    <use x="30" y="0" xlink:href="#b1"/>
    <use x="35" y="0" xlink:href="#b1"/>
    <use x="40" y="0" xlink:href="#b1"/>
    <use x="45" y="0" xlink:href="#b1"/>
    <use x="50" y="0" xlink:href="#b1"/>
    <use x="55" y="0" xlink:href="#b1"/>
    <use x="60" y="0" xlink:href="#b1"/>
    <use x="65" y="0" xlink:href="#b1"/>
    <use x="70" y="0" xlink:href="#b1"/>
    <use x="75" y="0" xlink:href="#b1"/>
    <use x="80" y="0" xlink:href="#b1"/>
    <use x="85" y="0" xlink:href="#b1"/>
    <use x="90" y="0" xlink:href="#b1"/>
    <use x="95" y="0" xlink:href="#b1"/>
    <use x="0" y="5" xlink:href="#b1"/>
    <use x="5" y="5" xlink:href="#b1"/>
    <use x="10" y="5" xlink:href="#b1"/>
    <use x="15" y="5" xlink:href="#b1"/>
    <use x="20" y="5" xlink:href="#b1"/>
    <use x="25" y="5" xlink:href="#b1"/>
    <use x="30" y="5" xlink:href="#b1"/>
    <use x="35" y="5" xlink:href="#b1"/>
    <use x="40" y="5" xlink:href="#b1"/>
    <use x="45" y="5" xlink:href="#b1"/>
    <use x="50" y="5" xlink:href="#b1"/>
    <use x="55" y="5" xlink:href="#b1"/>
    <use x="60" y="5" xlink:href="#b1"/>
    <use x="65" y="5" xlink:href="#b1"/>
    <use x="70" y="5" xlink:href="#b1"/>
    <use x="75" y="5" xlink:href="#b1"/>
    <use x="80" y="5" xlink:href="#b1"/>
    <use x="85" y="5" xlink:href="#b1"/>
    <use x="90" y="5" xlink:href="#b1"/>
    <use x="95" y="5" xlink:href="#b1"/>
    <use x="0" y="10" xlink:href="#b1"/>
    <use x="5" y="10" xlink:href="#b1"/>
    <use x="10" y="10" xlink:href="#b1"/>
    <use x="15" y="10" xlink:href="#b1"/>
    <use x="20" y="10" xlink:href="#b0"/>
    <use x="25" y="10" xlink:href="#b1"/>
    <use x="30" y="10" xlink:href="#b1"/>
    <use x="35" y="10" xlink:href="#b1"/>
    <use x="40" y="10" xlink:href="#b1"/>
    <use x="45" y="10" xlink:href="#b1"/>
    <use x="50" y="10" xlink:href="#b1"/>
    <use x="55" y="10" xlink:href="#b1"/>
    <use x="60" y="10" xlink:href="#b1"/>
    <use x="65" y="10" xlink:href="#b1"/>
    <use x="70" y="10" xlink:href="#b1"/>
    <use x="75" y="10" xlink:href="#b0"/>
    <use x="80" y="10" xlink:href="#b1"/>
    <use x="85" y="10" xlink:href="#b1"/>
    <use x="90" y="10" xlink:href="#b1"/>
    <use x="95" y="10" xlink:href="#b1"/>
    <use x="0" y="15" xlink:href="#b1"/>
    <use x="5" y="15" xlink:href="#b1"/>
    <use x="10" y="15" xlink:href="#b1"/>
    <use x="15" y="15" xlink:href="#b1"/>
    <use x="20" y="15" xlink:href="#b0"/>
    <use x="25" y="15" xlink:href="#b0"/>
    <use x="30" y="15" xlink:href="#b1"/>
    <use x="35" y="15" xlink:href="#b1"/>
    <use x="40" y="15" xlink:href="#b1"/>
    <use x="45" y="15" xlink:href="#b1"/>
    <use x="50" y="15" xlink:href="#b1"/>
    <use x="55" y="15" xlink:href="#b1"/>
    <use x="60" y="15" xlink:href="#b1"/>
    <use x="65" y="15" xlink:href="#b1"/>
    <use x="70" y="15" xlink:href="#b0"/>
    <use x="75" y="15" xlink:href="#b0"/>
    <use x="80" y="15" xlink:href="#b1"/>
    <use x="85" y="15" xlink:href="#b1"/>
    <use x="90" y="15" xlink:href="#b1"/>
    <use x="95" y="15" xlink:href="#b1"/>
    <use x="0" y="20" xlink:href="#b1"/>
    <use x="5" y="20" xlink:href="#b1"/>
    <use x="10" y="20" xlink:href="#b1"/>
    <use x="15" y="20" xlink:href="#b1"/>
    <use x="20" y="20" xlink:href="#b0"/>
    <use x="25" y="20" xlink:href="#b0"/>
    <use x="30" y="20" xlink:href="#b0"/>
    <use x="35" y="20" xlink:href="#b1"/>
    <use x="40" y="20" xlink:href="#b1"/>
    <use x="45" y="20" xlink:href="#b1"/>
    <use x="50" y="20" xlink:href="#b1"/>
    <use x="55" y="20" xlink:href="#b1"/>
    <use x="60" y="20" xlink:href="#b1"/>
    <use x="65" y="20" xlink:href="#b0"/>
    <use x="70" y="20" xlink:href="#b0"/>
    <use x="75" y="20" xlink:href="#b0"/>
    <use x="80" y="20" xlink:href="#b1"/>
    <use x="85" y="20" xlink:href="#b1"/>
    <use x="90" y="20" xlink:href="#b1"/>
    <use x="95" y="20" xlink:href="#b1"/>
    <use x="0" y="25" xlink:href="#b1"/>
    <use x="5" y="25" xlink:href="#b1"/>
    <use x="10" y="25" xlink:href="#b1"/>
    <use x="15" y="25" xlink:href="#b1"/>
    <use x="20" y="25" xlink:href="#b0"/>
    <use x="25" y="25" xlink:href="#b0"/>
    <use x="30" y="25" xlink:href="#b0"/>
    <use x="35" y="25" xlink:href="#b0"/>
    <use x="40" y="25" xlink:href="#b0"/>
    <use x="45" y="25" xlink:href="#b0"/>
    <use x="50" y="25" xlink:href="#b0"/>
    <use x="55" y="25" xlink:href="#b0"/>
    <use x="60" y="25" xlink:href="#b0"/>
    <use x="65" y="25" xlink:href="#b0"/>
    <use x="70" y="25" xlink:href="#b0"/>
    <use x="75" y="25" xlink:href="#b0"/>
    <use x="80" y="25" xlink:href="#b1"/>
    <use x="85" y="25" xlink:href="#b1"/>
    <use x="90" y="25" xlink:href="#b1"/>
    <use x="95" y="25" xlink:href="#b1"/>
    <use x="0" y="30" xlink:href="#b1"/>
    <use x="5" y="30" xlink:href="#b1"/>
    <use x="10" y="30" xlink:href="#b1"/>
    <use x="15" y="30" xlink:href="#b1"/>
    <use x="20" y="30" xlink:href="#b0"/>
    <use x="25" y="30" xlink:href="#b0"/>
    <use x="30" y="30" xlink:href="#b0"/>
    <use x="35" y="30" xlink:href="#b0"/>
    <use x="40" y="30" xlink:href="#b0"/>
    <use x="45" y="30" xlink:href="#b0"/>
    <use x="50" y="30" xlink:href="#b0"/>
    <use x="55" y="30" xlink:href="#b0"/>
    <use x="60" y="30" xlink:href="#b0"/>
    <use x="65" y="30" xlink:href="#b0"/>
    <use x="70" y="30" xlink:href="#b0"/>
    <use x="75" y="30" xlink:href="#b0"/>
    <use x="80" y="30" xlink:href="#b1"/>
    <use x="85" y="30" xlink:href="#b1"/>
    <use x="90" y="30" xlink:href="#b1"/>
    <use x="95" y="30" xlink:href="#b1"/>
    <use x="0" y="35" xlink:href="#b1"/>
    <use x="5" y="35" xlink:href="#b1"/>
    <use x="10" y="35" xlink:href="#b1"/>
    <use x="15" y="35" xlink:href="#b1"/>
    <use x="20" y="35" xlink:href="#b0"/>
    <use x="25" y="35" xlink:href="#b0"/>
    <use x="30" y="35" xlink:href="#b0"/>
    <use x="35" y="35" xlink:href="#b0"/>
    <use x="40" y="35" xlink:href="#b0"/>
    <use x="45" y="35" xlink:href="#b0"/>
    <use x="50" y="35" xlink:href="#b0"/>
    <use x="55" y="35" xlink:href="#b0"/>
    <use x="60" y="35" xlink:href="#b0"/>
    <use x="65" y="35" xlink:href="#b0"/>
    <use x="70" y="35" xlink:href="#b0"/>
    <use x="75" y="35" xlink:href="#b0"/>
    <use x="80" y="35" xlink:href="#b1"/>
    <use x="85" y="35" xlink:href="#b1"/>
    <use x="90" y="35" xlink:href="#b1"/>
    <use x="95" y="35" xlink:href="#b1"/>
    <use x="0" y="40" xlink:href="#b1"/>
    <use x="5" y="40" xlink:href="#b1"/>
    <use x="10" y="40" xlink:href="#b1"/>
    <use x="15" y="40" xlink:href="#b0"/>
    <use x="20" y="40" xlink:href="#b0"/>
    <use x="25" y="40" xlink:href="#b0"/>
    <use x="30" y="40" xlink:href="#b0"/>
    <use x="35" y="40" xlink:href="#b1"/>
    <use x="40" y="40" xlink:href="#b0"/>
    <use x="45" y="40" xlink:href="#b0"/>
    <use x="50" y="40" xlink:href="#b0"/>
    <use x="55" y="40" xlink:href="#b0"/>
    <use x="60" y="40" xlink:href="#b1"/>
    <use x="65" y="40" xlink:href="#b0"/>
    <use x="70" y="40" xlink:href="#b0"/>
    <use x="75" y="40" xlink:href="#b0"/>
    <use x="80" y="40" xlink:href="#b0"/>
    <use x="85" y="40" xlink:href="#b1"/>
    <use x="90" y="40" xlink:href="#b1"/>
    <use x="95" y="40" xlink:href="#b1"/>
    <use x="0" y="45" xlink:href="#b1"/>
    <use x="5" y="45" xlink:href="#b1"/>
    <use x="10" y="45" xlink:href="#b1"/>
    <use x="15" y="45" xlink:href="#b0"/>
    <use x="20" y="45" xlink:href="#b0"/>
    <use x="25" y="45" xlink:href="#b0"/>
    <use x="30" y="45" xlink:href="#b0"/>
    <use x="35" y="45" xlink:href="#b1"/>
    <use x="40" y="45" xlink:href="#b0"/>
    <use x="45" y="45" xlink:href="#b0"/>
    <use x="50" y="45" xlink:href="#b0"/>
    <use x="55" y="45" xlink:href="#b0"/>
    <use x="60" y="45" xlink:href="#b1"/>
    <use x="65" y="45" xlink:href="#b0"/>
    <use x="70" y="45" xlink:href="#b0"/>
    <use x="75" y="45" xlink:href="#b0"/>
    <use x="80" y="45" xlink:href="#b0"/>
    <use x="85" y="45" xlink:href="#b1"/>
    <use x="90" y="45" xlink:href="#b1"/>
    <use x="95" y="45" xlink:href="#b1"/>
    <use x="0" y="50" xlink:href="#b0"/>
    <use x="5" y="50" xlink:href="#b0"/>
    <use x="10" y="50" xlink:href="#b0"/>
    <use x="15" y="50" xlink:href="#b0"/>
    <use x="20" y="50" xlink:href="#b0"/>
    <use x="25" y="50" xlink:href="#b0"/>
    <use x="30" y="50" xlink:href="#b0"/>
    <use x="35" y="50" xlink:href="#b0"/>
    <use x="40" y="50" xlink:href="#b0"/>
    <use x="45" y="50" xlink:href="#b0"/>
    <use x="50" y="50" xlink:href="#b0"/>
    <use x="55" y="50" xlink:href="#b0"/>
    <use x="60" y="50" xlink:href="#b0"/>
    <use x="65" y="50" xlink:href="#b0"/>
    <use x="70" y="50" xlink:href="#b0"/>
    <use x="75" y="50" xlink:href="#b0"/>
    <use x="80" y="50" xlink:href="#b0"/>
    <use x="85" y="50" xlink:href="#b0"/>
    <use x="90" y="50" xlink:href="#b0"/>
    <use x="95" y="50" xlink:href="#b0"/>
    <use x="0" y="55" xlink:href="#b1"/>
    <use x="5" y="55" xlink:href="#b1"/>
    <use x="10" y="55" xlink:href="#b1"/>
    <use x="15" y="55" xlink:href="#b0"/>
    <use x="20" y="55" xlink:href="#b0"/>
    <use x="25" y="55" xlink:href="#b0"/>
    <use x="30" y="55" xlink:href="#b0"/>
    <use x="35" y="55" xlink:href="#b0"/>
    <use x="40" y="55" xlink:href="#b0"/>
    <use x="45" y="55" xlink:href="#b0"/>
    <use x="50" y="55" xlink:href="#b0"/>
    <use x="55" y="55" xlink:href="#b0"/>
    <use x="60" y="55" xlink:href="#b0"/>
    <use x="65" y="55" xlink:href="#b0"/>
    <use x="70" y="55" xlink:href="#b0"/>
    <use x="75" y="55" xlink:href="#b0"/>
    <use x="80" y="55" xlink:href="#b0"/>
    <use x="85" y="55" xlink:href="#b1"/>
    <use x="90" y="55" xlink:href="#b1"/>
    <use x="95" y="55" xlink:href="#b1"/>
    <use x="0" y="60" xlink:href="#b1"/>
    <use x="5" y="60" xlink:href="#b1"/>
    <use x="10" y="60" xlink:href="#b1"/>
    <use x="15" y="60" xlink:href="#b0"/>
    <use x="20" y="60" xlink:href="#b0"/>
    <use x="25" y="60" xlink:href="#b0"/>
    <use x="30" y="60" xlink:href="#b0"/>
    <use x="35" y="60" xlink:href="#b0"/>
    <use x="40" y="60" xlink:href="#b0"/>
    <use x="45" y="60" xlink:href="#b1"/>
    <use x="50" y="60" xlink:href="#b1"/>
    <use x="55" y="60" xlink:href="#b0"/>
    <use x="60" y="60" xlink:href="#b0"/>
    <use x="65" y="60" xlink:href="#b0"/>
    <use x="70" y="60" xlink:href="#b0"/>
    <use x="75" y="60" xlink:href="#b0"/>
    <use x="80" y="60" xlink:href="#b0"/>
    <use x="85" y="60" xlink:href="#b1"/>
    <use x="90" y="60" xlink:href="#b1"/>
    <use x="95" y="60" xlink:href="#b1"/>
    <use x="0" y="65" xlink:href="#b1"/>
    <use x="5" y="65" xlink:href="#b1"/>
    <use x="10" y="65" xlink:href="#b0"/>
    <use x="15" y="65" xlink:href="#b1"/>
    <use x="20" y="65" xlink:href="#b0"/>
    <use x="25" y="65" xlink:href="#b0"/>
    <use x="30" y="65" xlink:href="#b0"/>
    <use x="35" y="65" xlink:href="#b0"/>
    <use x="40" y="65" xlink:href="#b0"/>
    <use x="45" y="65" xlink:href="#b0"/>
    <use x="50" y="65" xlink:href="#b0"/>
    <use x="55" y="65" xlink:href="#b0"/>
    <use x="60" y="65" xlink:href="#b0"/>
    <use x="65" y="65" xlink:href="#b0"/>
    <use x="70" y="65" xlink:href="#b0"/>
    <use x="75" y="65" xlink:href="#b0"/>
    <use x="80" y="65" xlink:href="#b1"/>
    <use x="85" y="65" xlink:href="#b0"/>
    <use x="90" y="65" xlink:href="#b1"/>
    <use x="95" y="65" xlink:href="#b1"/>
    <use x="0" y="70" xlink:href="#b1"/>
    <use x="5" y="70" xlink:href="#b0"/>
    <use x="10" y="70" xlink:href="#b1"/>
    <use x="15" y="70" xlink:href="#b1"/>
    <use x="20" y="70" xlink:href="#b1"/>
    <use x="25" y="70" xlink:href="#b1"/>
    <use x="30" y="70" xlink:href="#b0"/>
    <use x="35" y="70" xlink:href="#b0"/>
    <use x="40" y="70" xlink:href="#b0"/>
    <use x="45" y="70" xlink:href="#b0"/>
    <use x="50" y="70" xlink:href="#b0"/>
    <use x="55" y="70" xlink:href="#b0"/>
    <use x="60" y="70" xlink:href="#b0"/>
    <use x="65" y="70" xlink:href="#b0"/>
    <use x="70" y="70" xlink:href="#b1"/>
    <use x="75" y="70" xlink:href="#b1"/>
    <use x="80" y="70" xlink:href="#b1"/>
    <use x="85" y="70" xlink:href="#b1"/>
    <use x="90" y="70" xlink:href="#b0"/>
    <use x="95" y="70" xlink:href="#b1"/>
    <use x="0" y="75" xlink:href="#b0"/>
    <use x="5" y="75" xlink:href="#b1"/>
    <use x="10" y="75" xlink:href="#b1"/>
    <use x="15" y="75" xlink:href="#b1"/>
    <use x="20" y="75" xlink:href="#b1"/>
    <use x="25" y="75" xlink:href="#b1"/>
    <use x="30" y="75" xlink:href="#b1"/>
    <use x="35" y="75" xlink:href="#b1"/>
    <use x="40" y="75" xlink:href="#b0"/>
    <use x="45" y="75" xlink:href="#b0"/>
    <use x="50" y="75" xlink:href="#b0"/>
    <use x="55" y="75" xlink:href="#b0"/>
    <use x="60" y="75" xlink:href="#b1"/>
    <use x="65" y="75" xlink:href="#b1"/>
    <use x="70" y="75" xlink:href="#b1"/>
    <use x="75" y="75" xlink:href="#b1"/>
    <use x="80" y="75" xlink:href="#b1"/>
    <use x="85" y="75" xlink:href="#b1"/>
    <use x="90" y="75" xlink:href="#b1"/>
    <use x="95" y="75" xlink:href="#b0"/>
    <use x="0" y="80" xlink:href="#b1"/>
    <use x="5" y="80" xlink:href="#b1"/>
    <use x="10" y="80" xlink:href="#b1"/>
    <use x="15" y="80" xlink:href="#b1"/>
    <use x="20" y="80" xlink:href="#b1"/>
    <use x="25" y="80" xlink:href="#b1"/>
    <use x="30" y="80" xlink:href="#b1"/>
    <use x="35" y="80" xlink:href="#b1"/>
    <use x="40" y="80" xlink:href="#b0"/>
    <use x="45" y="80" xlink:href="#b0"/>
    <use x="50" y="80" xlink:href="#b0"/>
    <use x="55" y="80" xlink:href="#b0"/>
    <use x="60" y="80" xlink:href="#b1"/>
    <use x="65" y="80" xlink:href="#b1"/>
    <use x="70" y="80" xlink:href="#b1"/>
    <use x="75" y="80" xlink:href="#b1"/>
    <use x="80" y="80" xlink:href="#b1"/>
    <use x="85" y="80" xlink:href="#b1"/>
    <use x="90" y="80" xlink:href="#b1"/>
    <use x="95" y="80" xlink:href="#b1"/>
    <use x="0" y="85" xlink:href="#b1"/>
    <use x="5" y="85" xlink:href="#b1"/>
    <use x="10" y="85" xlink:href="#b1"/>
    <use x="15" y="85" xlink:href="#b1"/>
    <use x="20" y="85" xlink:href="#b1"/>
    <use x="25" y="85" xlink:href="#b1"/>
    <use x="30" y="85" xlink:href="#b1"/>
    <use x="35" y="85" xlink:href="#b1"/>
    <use x="40" y="85" xlink:href="#b0"/>
    <use x="45" y="85" xlink:href="#b0"/>
    <use x="50" y="85" xlink:href="#b0"/>
    <use x="55" y="85" xlink:href="#b0"/>
    <use x="60" y="85" xlink:href="#b1"/>
    <use x="65" y="85" xlink:href="#b1"/>
    <use x="70" y="85" xlink:href="#b1"/>
    <use x="75" y="85" xlink:href="#b1"/>
    <use x="80" y="85" xlink:href="#b1"/>
    <use x="85" y="85" xlink:href="#b1"/>
    <use x="90" y="85" xlink:href="#b1"/>
    <use x="95" y="85" xlink:href="#b1"/>
</svg>
